:FULLY-SPECIFIED
:FORCE-ALL-JOINTS-BE-3DOF
:DEGREES
404
root 9.75001 16.7939 20.632 7.41324 -0.520255 -7.03464
lfemur -41.4683 2.30752 -13.3099
ltibia 30.6005 0 0
lfoot -8.8015 10.3696 0
ltoes -11.5754 0 0
rfemur 14.5963 5.78229 32.0949
rtibia 5.16197 0 0
rfoot -7.38484 6.2306 0
rtoes -15.9856 0 0
lowerback -8.3332 2.86077 3.11814
upperback -0.70389 3.35165 3.45527
thorax 3.93788 1.69091 2.26363
lowerneck -19.424 -6.24477 -13.1645
upperneck 21.5882 -8.10142 13.092
head 11.342 -3.2538 5.76048
lclavicle -1.63513e-15 -2.98759e-14 0
lhumerus -52.9168 -10.6623 96.1526
lradius 26.8973 0 0
lwrist 7.16499 0 0
lhand -7.74627 -21.1248 0
lfingers 7.12502 0 0
lthumb 18.1513 8.02453 0
rclavicle -1.63513e-15 -2.98759e-14 0
rhumerus -31.1482 14.4621 -86.3902
rradius 38.8855 0 0
rwrist -17.3787 0 0
rhand -29.5589 -24.1095 0
rfingers 7.12502 0 0
rthumb -2.89146 -54.0688 0
405
root 9.76275 16.7859 20.7728 7.44823 -0.676066 -7.15985
lfemur -41.7089 2.20929 -13.177
ltibia 29.7618 0 0
lfoot -8.6262 10.3369 0
ltoes -11.8901 0 0
rfemur 15.4575 5.77239 32.1933
rtibia 4.42455 0 0
rfoot -7.0277 6.34719 0
rtoes -15.9347 0 0
lowerback -8.41385 2.9483 3.21164
upperback -0.699304 3.45651 3.47859
thorax 3.98722 1.74402 2.24898
lowerneck -19.4017 -6.24422 -13.1824
upperneck 21.5862 -8.10045 13.104
head 11.3382 -3.25425 5.76848
lclavicle -1.47785e-15 -2.95268e-14 0
lhumerus -53.1195 -10.4219 96.1011
lradius 26.8421 0 0
lwrist 7.01128 0 0
lhand -7.55381 -21.0986 0
lfingers 7.12502 0 0
lthumb 18.3367 8.0361 0
rclavicle -1.47785e-15 -2.95268e-14 0
rhumerus -31.0536 14.3677 -86.4496
rradius 38.7427 0 0
rwrist -17.2315 0 0
rhand -29.5199 -24.1043 0
rfingers 7.12502 0 0
rthumb -2.85378 -54.0642 0
406
root 9.77549 16.7779 20.9136 7.48323 -0.831876 -7.28505
lfemur -41.9495 2.11105 -13.044
ltibia 28.923 0 0
lfoot -8.45089 10.3041 0
ltoes -12.2047 0 0
rfemur 16.3188 5.7625 32.2918
rtibia 3.68712 0 0
rfoot -6.67055 6.46379 0
rtoes -15.8839 0 0
lowerback -8.49449 3.03582 3.30515
upperback -0.694718 3.56136 3.50191
thorax 4.03656 1.79712 2.23433
lowerneck -19.3795 -6.24366 -13.2004
upperneck 21.5841 -8.09948 13.1159
head 11.3344 -3.2547 5.77649
lclavicle -1.32058e-15 -2.91777e-14 0
lhumerus -53.3222 -10.1815 96.0497
lradius 26.7868 0 0
lwrist 6.85756 0 0
lhand -7.36135 -21.0725 0
lfingers 7.12502 0 0
lthumb 18.522 8.04766 0
rclavicle -1.32058e-15 -2.91777e-14 0
rhumerus -30.9589 14.2733 -86.5091
rradius 38.6 0 0
rwrist -17.0844 0 0
rhand -29.4809 -24.099 0
rfingers 7.12502 0 0
rthumb -2.8161 -54.0595 0
407
root 9.78823 16.77 21.0544 7.51822 -0.987687 -7.41026
lfemur -42.1901 2.01282 -12.9111
ltibia 28.0842 0 0
lfoot -8.27558 10.2714 0
ltoes -12.5194 0 0
rfemur 17.18 5.75261 32.3903
rtibia 2.9497 0 0
rfoot -6.31341 6.58038 0
rtoes -15.833 0 0
lowerback -8.57513 3.12334 3.39865
upperback -0.690132 3.66622 3.52524
thorax 4.0859 1.85023 2.21968
lowerneck -19.3572 -6.2431 -13.2183
upperneck 21.5821 -8.09851 13.1278
head 11.3306 -3.25514 5.7845
lclavicle -1.16331e-15 -2.88286e-14 0
lhumerus -53.5249 -9.94114 95.9983
lradius 26.7316 0 0
lwrist 6.70385 0 0
lhand -7.1689 -21.0464 0
lfingers 7.12502 0 0
lthumb 18.7073 8.05923 0
rclavicle -1.16331e-15 -2.88286e-14 0
rhumerus -30.8643 14.1789 -86.5686
rradius 38.4573 0 0
rwrist -16.9372 0 0
rhand -29.4419 -24.0938 0
rfingers 7.12502 0 0
rthumb -2.77842 -54.0549 0
408
root 9.80097 16.762 21.1952 7.55321 -1.1435 -7.53546
lfemur -42.4307 1.91458 -12.7782
ltibia 27.2454 0 0
lfoot -8.10028 10.2387 0
ltoes -12.8341 0 0
rfemur 18.0412 5.74272 32.4887
rtibia 2.21227 0 0
rfoot -5.95627 6.69697 0
rtoes -15.7822 0 0
lowerback -8.65578 3.21087 3.49215
upperback -0.685546 3.77107 3.54856
thorax 4.13524 1.90334 2.20503
lowerneck -19.335 -6.24255 -13.2363
upperneck 21.58 -8.09755 13.1398
head 11.3268 -3.25559 5.79251
lclavicle -1.00604e-15 -2.84796e-14 0
lhumerus -53.7276 -9.70076 95.9469
lradius 26.6763 0 0
lwrist 6.55013 0 0
lhand -6.97644 -21.0202 0
lfingers 7.12502 0 0
lthumb 18.8927 8.0708 0
rclavicle -1.00604e-15 -2.84796e-14 0
rhumerus -30.7696 14.0845 -86.6281
rradius 38.3146 0 0
rwrist -16.79 0 0
rhand -29.4029 -24.0886 0
rfingers 7.12502 0 0
rthumb -2.74074 -54.0503 0
409
root 9.81371 16.754 21.336 7.5882 -1.29931 -7.66067
lfemur -42.6713 1.81635 -12.6453
ltibia 26.4067 0 0
lfoot -7.92497 10.206 0
ltoes -13.1488 0 0
rfemur 18.9024 5.73282 32.5872
rtibia 1.47485 0 0
rfoot -5.59913 6.81356 0
rtoes -15.7313 0 0
lowerback -8.73642 3.29839 3.58565
upperback -0.680959 3.87593 3.57188
thorax 4.18457 1.95645 2.19038
lowerneck -19.3127 -6.24199 -13.2542
upperneck 21.578 -8.09658 13.1517
head 11.3231 -3.25604 5.80051
lclavicle -8.48774e-16 -2.81305e-14 0
lhumerus -53.9303 -9.46038 95.8954
lradius 26.6211 0 0
lwrist 6.39642 0 0
lhand -6.78398 -20.9941 0
lfingers 7.12502 0 0
lthumb 19.078 8.08237 0
rclavicle -8.48774e-16 -2.81305e-14 0
rhumerus -30.675 13.9901 -86.6875
rradius 38.1719 0 0
rwrist -16.6428 0 0
rhand -29.3638 -24.0834 0
rfingers 7.12502 0 0
rthumb -2.70305 -54.0457 0
410
root 9.82645 16.7461 21.4768 7.6232 -1.45512 -7.78587
lfemur -42.9119 1.71811 -12.5123
ltibia 25.5679 0 0
lfoot -7.74967 10.1732 0
ltoes -13.4634 0 0
rfemur 19.7636 5.72293 32.6856
rtibia 0.737424 0 0
rfoot -5.24198 6.93015 0
rtoes -15.6805 0 0
lowerback -8.81707 3.38592 3.67916
upperback -0.676373 3.98078 3.5952
thorax 4.23391 2.00955 2.17573
lowerneck -19.2905 -6.24144 -13.2722
upperneck 21.5759 -8.09561 13.1637
head 11.3193 -3.25649 5.80852
lclavicle -6.91504e-16 -2.77814e-14 0
lhumerus -54.133 -9.21999 95.844
lradius 26.5658 0 0
lwrist 6.2427 0 0
lhand -6.59153 -20.9679 0
lfingers 7.12502 0 0
lthumb 19.2634 8.09393 0
rclavicle -6.91504e-16 -2.77814e-14 0
rhumerus -30.5803 13.8957 -86.747
rradius 38.0292 0 0
rwrist -16.4957 0 0
rhand -29.3248 -24.0781 0
rfingers 7.12502 0 0
rthumb -2.66537 -54.041 0
411
root 9.83919 16.7381 21.6176 7.65819 -1.61093 -7.91108
lfemur -43.1525 1.61988 -12.3794
ltibia 24.7291 0 0
lfoot -7.57436 10.1405 0
ltoes -13.7781 0 0
rfemur 20.6248 5.71304 32.7841
rtibia 2.8625e-14 0 0
rfoot -4.88484 7.04674 0
rtoes -15.6296 0 0
lowerback -8.89771 3.47344 3.77266
upperback -0.671787 4.08564 3.61852
thorax 4.28325 2.06266 2.16108
lowerneck -19.2682 -6.24088 -13.2901
upperneck 21.5739 -8.09464 13.1756
head 11.3155 -3.25694 5.81653
lclavicle -5.34234e-16 -2.74323e-14 0
lhumerus -54.3357 -8.97961 95.7926
lradius 26.5106 0 0
lwrist 6.08899 0 0
lhand -6.39907 -20.9418 0
lfingers 7.12502 0 0
lthumb 19.4487 8.1055 0
rclavicle -5.34234e-16 -2.74323e-14 0
rhumerus -30.4857 13.8013 -86.8065
rradius 37.8865 0 0
rwrist -16.3485 0 0
rhand -29.2858 -24.0729 0
rfingers 7.12502 0 0
rthumb -2.62769 -54.0364 0
412
root 9.86234 16.7558 21.7619 7.60087 -1.55596 -7.66583
lfemur -42.5699 1.67308 -12.7687
ltibia 24.7701 0 0
lfoot -7.69977 10.0115 0
ltoes -13.4425 0 0
rfemur 19.6545 5.51654 32.405
rtibia 1.58687 0 0
rfoot -4.97832 6.67858 0
rtoes -15.7218 0 0
lowerback -8.81473 3.36231 3.61273
upperback -0.692474 3.95394 3.56347
thorax 4.21804 1.99619 2.1785
lowerneck -19.311 -6.18798 -13.2551
upperneck 21.6398 -8.01388 13.1142
head 11.333 -3.22383 5.80276
lclavicle -1.588e-15 -2.66953e-14 0
lhumerus -53.6452 -9.05058 95.6489
lradius 26.368 0 0
lwrist 5.82874 0 0
lhand -6.51418 -21.001 0
lfingers 7.12502 0 0
lthumb 19.3379 8.05599 0
rclavicle -1.588e-15 -2.66953e-14 0
rhumerus -30.8453 13.7248 -86.843
rradius 37.7997 0 0
rwrist -16.2584 0 0
rhand -29.3132 -24.2601 0
rfingers 7.12502 0 0
rthumb -2.65414 -54.2232 0
